<?xml version="1.0" standalone="no"?>
<!DOCTYPE svg PUBLIC "-//W3C//DTD SVG 20010904//EN"
 "http://www.w3.org/TR/2001/REC-SVG-20010904/DTD/svg10.dtd">
<svg version="1.0" xmlns="http://www.w3.org/2000/svg"
 width="256.000000pt" height="256.000000pt" viewBox="0 0 256.000000 256.000000"
 preserveAspectRatio="xMidYMid meet">
<metadata>
Created by potrace 1.11, written by Peter Selinger 2001-2013
</metadata>
<g transform="translate(0.000000,256.000000) scale(0.100000,-0.100000)"
fill="#000000" stroke="none">
<path d="M1250 2416 c-194 -41 -354 -137 -476 -285 -61 -73 -127 -198 -146
-276 -7 -27 -13 -52 -14 -54 -2 -1 -22 -5 -46 -7 -268 -26 -493 -220 -553
-477 -19 -82 -13 -232 13 -314 54 -171 177 -307 345 -383 101 -45 156 -53 368
-54 l197 -2 4 41 c2 22 2 53 -2 70 l-6 30 -189 1 c-238 1 -300 17 -413 101
-147 111 -217 303 -177 483 16 71 68 163 124 219 103 102 230 151 379 145 72
-2 82 -1 82 14 6 275 219 529 502 601 81 21 211 25 280 9 24 -5 50 -11 58 -13
142 -31 314 -165 395 -310 59 -106 79 -185 80 -317 l0 -118 55 -16 c102 -30
177 -82 232 -161 142 -208 68 -485 -158 -594 -74 -35 -139 -44 -302 -44 l-123
0 3 -70 3 -70 161 1 c134 1 172 4 232 23 337 102 493 456 339 770 -40 84 -150
194 -232 236 -48 24 -60 35 -61 55 -9 208 -89 397 -228 536 -114 114 -229 180
-381 220 -84 21 -264 27 -345 10z"/>
<path d="M1153 1763 c-110 -159 -226 -326 -258 -373 -54 -79 -142 -205 -258
-372 -26 -38 -47 -70 -47 -72 0 -2 134 -4 298 -4 285 1 297 0 295 -18 -3 -25
-24 -175 -28 -194 -2 -8 -6 -37 -9 -65 -4 -27 -8 -61 -11 -75 -6 -30 -11 -67
-21 -135 -3 -27 -8 -59 -10 -70 -6 -28 -24 -152 -31 -205 l-5 -45 48 54 c62
70 122 137 204 231 36 41 85 97 110 125 25 28 72 82 105 119 33 38 65 74 70
80 6 6 47 53 93 105 l82 93 0 284 0 284 -158 0 -158 0 0 -127 0 -128 -112 -3
c-128 -3 -119 -12 -101 98 5 36 12 79 15 95 2 17 6 41 9 55 2 14 7 45 10 70 3
25 10 70 15 100 5 30 12 71 14 90 2 19 9 64 15 100 6 36 13 83 16 105 3 22 8
50 10 63 3 12 3 22 1 22 -2 0 -94 -129 -203 -287z"/>
</g>
</svg>
